
<svg id="group_add_black_24dp" xmlns="http://www.w3.org/2000/svg" width="24" height="24" viewBox="0 0 24 24">
  <g id="Group_29908" data-name="Group 29908">
    <rect id="Rectangle_78028" data-name="Rectangle 78028" width="24" height="24" fill="none"/>
    <rect id="Rectangle_78029" data-name="Rectangle 78029" width="24" height="24" fill="none"/>
  </g>
  <g id="Group_29910" data-name="Group 29910">
    <g id="Group_29909" data-name="Group 29909">
      <path id="Path_21678" data-name="Path 21678" d="M22,9V7H20V9H18v2h2v2h2V11h2V9Z"/>
      <path id="Path_21679" data-name="Path 21679" d="M8,12A4,4,0,1,0,4,8,4,4,0,0,0,8,12ZM8,6A2,2,0,1,1,6,8,2.006,2.006,0,0,1,8,6Z"/>
      <path id="Path_21680" data-name="Path 21680" d="M8,13c-2.67,0-8,1.34-8,4v3H16V17C16,14.34,10.67,13,8,13Zm6,5H2v-.99C2.2,16.29,5.3,15,8,15s5.8,1.29,6,2Z"/>
      <path id="Path_21681" data-name="Path 21681" d="M12.51,4.05a5.981,5.981,0,0,1,0,7.9,3.98,3.98,0,0,0,0-7.9Z"/>
      <path id="Path_21682" data-name="Path 21682" d="M16.53,13.83A4.237,4.237,0,0,1,18,17v3h2V17C20,15.55,18.41,14.49,16.53,13.83Z"/>
    </g>
  </g>
</svg>
