<svg id="sensors_black_24dp" xmlns="http://www.w3.org/2000/svg" width="24" height="24" viewBox="0 0 24 24">
  <rect id="Rectangle_78027" data-name="Rectangle 78027" width="24" height="24" fill="none"/>
  <path id="Path_21677" data-name="Path 21677" d="M7.76,16.24a5.987,5.987,0,0,1,0-8.48L9.18,9.18A3.951,3.951,0,0,0,8,12a4.025,4.025,0,0,0,1.17,2.83Zm8.48,0a5.987,5.987,0,0,0,0-8.48L14.82,9.18A3.951,3.951,0,0,1,16,12a4.025,4.025,0,0,1-1.17,2.83ZM12,10a2,2,0,1,0,2,2A2.006,2.006,0,0,0,12,10Zm8,2a7.94,7.94,0,0,1-2.35,5.65l1.42,1.42a9.995,9.995,0,0,0,0-14.14L17.65,6.35A7.94,7.94,0,0,1,20,12ZM6.35,6.35,4.93,4.93a9.995,9.995,0,0,0,0,14.14l1.42-1.42a7.967,7.967,0,0,1,0-11.3Z"/>
</svg>
