<svg xmlns="http://www.w3.org/2000/svg" width="134.786" height="33.029" viewBox="0 0 134.786 33.029">
  <g id="Group_94" data-name="Group 94" transform="translate(-669.859 300.242)">
    <path id="Path_373" data-name="Path 373" d="M945.267-300.194c.231-.01.425-.027.619-.027,6.035,0,12.072-.064,18.106.031A13.863,13.863,0,0,1,971.924-298a6.559,6.559,0,0,1,2.967,5.478,10.245,10.245,0,0,1-.623,4.381,6.7,6.7,0,0,1-3.579,3.575c-.193.089-.394.159-.647.26.692.433,1.347.8,1.954,1.232a7.274,7.274,0,0,1,3.183,5.481,8.338,8.338,0,0,1-2.593,7.179,11.493,11.493,0,0,1-5.537,2.692,30.716,30.716,0,0,1-6.975.386c-4.73.017-9.461.005-14.192,0-.194,0-.388-.017-.615-.027Zm8.145,25.23a1.539,1.539,0,0,0,.271.052c3.7,0,7.4,0,11.106-.019a2.858,2.858,0,0,0,2.6-2.731,2.866,2.866,0,0,0-2.861-2.9c-3.536-.019-7.072-.008-10.607-.006a4.622,4.622,0,0,0-.511.057Zm.014-12.666h.862c3.492-.006,6.984-.028,10.475-.011a2.816,2.816,0,0,0,2.737-2.8,2.734,2.734,0,0,0-2.729-2.705c-3.559.023-7.118.007-10.677.009-.214,0-.428.022-.668.035Z" transform="translate(-238.823)" fill="#fff"/>
    <path id="Path_374" data-name="Path 374" d="M1464.793-299.868h29.182v7.054h-20.311c-.877,0-.878,0-.879.875,0,1.279.018,2.559-.008,3.837-.012.594.192.791.808.789,5.817-.022,11.633-.013,17.45-.013h.82v7.056h-18.932v5.906h21.058v7.434h-29.188Z" transform="translate(-689.336 -0.324)" fill="#fff"/>
    <path id="Path_375" data-name="Path 375" d="M1228.008-284.33a33.052,33.052,0,0,1,2.847,2.061,5.4,5.4,0,0,1,1.769,4.044c.062,3.57.02,7.143.019,10.714a2.733,2.733,0,0,1-.037.3h-7.854c0-.495,0-.952,0-1.41,0-2.469-.028-4.939,0-7.407a4.689,4.689,0,0,0-4.412-4.513c-2.917.025-5.833.006-8.75.008-.127,0-.255.022-.439.04v13.283h-7.983v-32.938c.189-.01.4-.031.612-.031,5.792,0,11.586-.042,17.378.017a16.372,16.372,0,0,1,7.529,1.522,7.085,7.085,0,0,1,3.97,5.873,7.964,7.964,0,0,1-1.333,5.852A7.364,7.364,0,0,1,1228.008-284.33Zm-16.835-3.282c3.917,0,7.763.038,11.606-.021a2.737,2.737,0,0,0,2.5-2.993,2.771,2.771,0,0,0-2.76-2.37c-2.583.088-5.171.02-7.757.018h-3.593Z" transform="translate(-462.468 -0.041)" fill="#fff"/>
    <path id="Path_376" data-name="Path 376" d="M701.13-292.8c-1.891,0-3.743-.016-5.6,0-3.027.031-6.063-.051-9.078.163-3.844.272-6.91,1.968-8.215,5.8a8.527,8.527,0,0,0,1.52,8.541,7.946,7.946,0,0,0,5.788,2.991c3.23.222,6.476.231,9.715.293,1.985.038,3.971.007,6,.007.016.217.04.386.04.556,0,2.226-.016,4.453-.018,6.679,0,.355.011.626-.505.623-3.183-.021-6.367.034-9.55-.027-2.089-.04-4.185-.14-6.259-.378a17,17,0,0,1-10.39-4.706,14.846,14.846,0,0,1-4.491-8.434,16.359,16.359,0,0,1,5.323-15.336,14.463,14.463,0,0,1,8.68-3.849c1.951-.161,3.912-.24,5.87-.264,3.471-.042,6.943-.013,10.415-.013h.754Z" transform="translate(0 -0.071)" fill="#fff"/>
  </g>
</svg>
